<?xml version="1.0" encoding="UTF-8"?>
<svg version="1.1" xmlns="http://www.w3.org/2000/svg" width="3000" height="900">
<path d="M0 0 C990 0 1980 0 3000 0 C3000 297 3000 594 3000 900 C2010 900 1020 900 0 900 C0 603 0 306 0 0 Z " fill="#000000" transform="translate(0,0)"/>
<path d="M0 0 C0.92615112 -0.00167175 1.85230225 -0.00334351 2.80651855 -0.00506592 C38.04558671 -0.00887225 38.04558671 -0.00887225 52.8125 5.25 C54.84864245 5.69287449 56.89099347 6.10779482 58.9375 6.5 C100.16279963 15.26307416 139.51653177 36.27313331 170.3359375 64.9609375 C172.42932183 66.89583216 174.56332207 68.73576906 176.75 70.5625 C190.03025233 82.16239388 200.98785984 96.69746133 210.8125 111.25 C207.82446155 114.44228412 204.68884544 116.82106545 201.04296875 119.2265625 C200.48912506 119.59390503 199.93528137 119.96124756 199.36465454 120.33972168 C197.57927545 121.52250686 195.78971078 122.69878204 194 123.875 C192.77598296 124.68427521 191.55226938 125.49400958 190.32885742 126.30419922 C187.92347766 127.89639884 185.51663409 129.48634222 183.10839844 131.07421875 C178.9379791 133.82731335 174.77999352 136.59870649 170.625 139.375 C169.46493803 140.14857889 168.30479433 140.92203527 167.14453125 141.6953125 C166.37496094 142.20835937 165.60539062 142.72140625 164.8125 143.25 C160.64704476 141.72489053 158.63274868 138.7129168 156.125 135.25 C151.65432657 129.27484419 146.95826232 123.66487509 141.8125 118.25 C141.09537842 117.49203125 141.09537842 117.49203125 140.36376953 116.71875 C124.7845731 100.35788988 106.59423887 87.61427998 86.203125 77.90625 C82.8125 76.25 82.8125 76.25 80.421875 74.76538086 C77.86101554 73.27817515 75.4726576 72.29290743 72.671875 71.34765625 C71.20331055 70.85108521 71.20331055 70.85108521 69.70507812 70.34448242 C21.71469797 54.585056 -30.45577082 52.26582254 -77.1875 74.25 C-77.78449707 74.53069336 -78.38149414 74.81138672 -78.99658203 75.10058594 C-127.79821518 98.25777565 -164.69762329 137.56549245 -183.03808594 188.61767578 C-187.86739802 202.51687965 -190.18738966 216.70700743 -192.1875 231.25 C-191.80529297 230.83226318 -191.42308594 230.41452637 -191.02929688 229.98413086 C-178.02439759 215.80746042 -178.02439759 215.80746042 -171.91015625 210.71875 C-170.06714872 209.14738757 -168.38264873 207.47927924 -166.6875 205.75 C-148.81193668 187.56045366 -127.33504499 171.79746845 -105.1875 159.25 C-104.42179688 158.80914062 -103.65609375 158.36828125 -102.8671875 157.9140625 C-91.61998768 151.45138578 -80.37702198 145.70681049 -68.1875 141.25 C-67.37700195 140.95109863 -66.56650391 140.65219727 -65.73144531 140.34423828 C-53.11236202 135.75308074 -40.46582209 132.30979917 -27.1875 130.25 C-26.18746948 130.09422485 -26.18746948 130.09422485 -25.16723633 129.93530273 C-17.61059106 128.93066203 -9.98389618 129.04904521 -2.375 129.0625 C-1.64040558 129.06376892 -0.90581116 129.06503784 -0.1489563 129.06634521 C39.40878624 129.19651006 74.72735686 139.97473918 108.8125 160.25 C109.55951172 160.69230957 110.30652344 161.13461914 111.07617188 161.59033203 C124.77891564 169.7716761 137.61093851 178.96410092 149.8125 189.25 C150.81667969 190.08015625 151.82085938 190.9103125 152.85546875 191.765625 C165.1002951 201.92975436 176.54106262 212.89942586 187.8125 224.125 C188.60156738 224.90939453 189.39063477 225.69378906 190.20361328 226.50195312 C194.93863536 231.25006372 199.53246537 236.08429758 203.8125 241.25 C204.39257812 241.90339355 204.97265625 242.55678711 205.5703125 243.22998047 C206.8125 245.25 206.8125 245.25 206.66772461 247.30029297 C205.72980766 249.43851869 204.73569932 250.75430596 203.12890625 252.4453125 C202.54391357 253.06599609 201.9589209 253.68667969 201.35620117 254.32617188 C200.70240479 255.00228516 200.0486084 255.67839844 199.375 256.375 C198.68704346 257.09494141 197.99908691 257.81488281 197.2902832 258.55664062 C194.81130418 261.13467202 192.3145709 263.69437068 189.8125 266.25 C189.30867798 266.76477905 188.80485596 267.27955811 188.2857666 267.80993652 C184.9367665 271.228383 181.57635234 274.63522556 178.20504761 278.03167725 C177.08313722 279.16232259 175.9625941 280.29432656 174.84353638 281.42779541 C167.8236032 288.52731966 160.64461333 295.04317417 152.8125 301.25 C151.77284948 302.1246667 150.73770383 303.00477512 149.7109375 303.89453125 C122.55432056 327.22568048 89.19534554 346.70516003 54.76660156 356.6796875 C52.9299957 357.2157084 51.10136081 357.77882889 49.2734375 358.34375 C-3.25345487 373.7174746 -56.39195052 360.19336762 -103.203125 335.04296875 C-110.1694629 331.20564668 -116.70287902 326.84229232 -123.1875 322.25 C-124.40197347 321.40571712 -125.6168202 320.56197091 -126.83203125 319.71875 C-134.22875283 314.54951252 -141.29740365 309.0837418 -148.1875 303.25 C-148.71279297 302.80962402 -149.23808594 302.36924805 -149.77929688 301.91552734 C-162.04790201 291.62607584 -173.73277055 280.74924297 -185.125 269.5 C-185.73472656 268.9033252 -186.34445312 268.30665039 -186.97265625 267.69189453 C-188.41741135 266.25007934 -189.80826868 264.75461599 -191.1875 263.25 C-191.1875 262.59 -191.1875 261.93 -191.1875 261.25 C-191.8475 261.25 -192.5075 261.25 -193.1875 261.25 C-190.05955727 299.93771276 -178.81494075 335.50135395 -156.1875 367.25 C-155.78756836 367.81509277 -155.38763672 368.38018555 -154.97558594 368.96240234 C-134.7602383 397.11773421 -106.0350924 418.88230124 -74.1875 432.25 C-72.99898437 432.75917969 -71.81046875 433.26835938 -70.5859375 433.79296875 C-62.46359015 437.12963628 -54.1496815 439.42147869 -45.625 441.5 C-44.62098145 441.7462915 -43.61696289 441.99258301 -42.58251953 442.24633789 C-27.8029641 445.70078751 -13.36245029 446.68663046 1.75 446.6875 C3.09788101 446.69059677 3.09788101 446.69059677 4.47299194 446.6937561 C18.2120675 446.68810763 30.98247088 445.68074652 44.27807617 441.95043945 C47.07980807 441.17612399 49.89871349 440.50827885 52.7265625 439.8359375 C85.70957402 431.60403195 114.41258769 413.49659297 138.8125 390.25 C139.46863281 389.63511719 140.12476563 389.02023437 140.80078125 388.38671875 C149.20896938 380.28779731 156.0760531 370.73976307 162.8125 361.25 C168.74550002 364.43559509 174.40268354 367.85384412 179.953125 371.6640625 C180.68319763 372.16038177 181.41327026 372.65670105 182.16546631 373.1680603 C184.4669404 374.73346071 186.76489767 376.30392371 189.0625 377.875 C191.37496691 379.45233976 193.68817958 381.02856824 196.00238037 382.60336304 C197.43373614 383.57778616 198.86401318 384.55379639 200.29302979 385.53164673 C203.7410484 387.88287872 207.20310573 390.14930816 210.8125 392.25 C204.4191121 405.84370824 193.062566 417.47759657 182.8125 428.25 C182.00353271 429.10198975 182.00353271 429.10198975 181.17822266 429.97119141 C173.48741905 438.01309208 165.51666646 445.28090159 156.58789062 451.92333984 C154.79907115 453.2600347 153.03185568 454.62192442 151.265625 455.98828125 C116.20224737 482.79922048 71.2506688 500.73454125 27.14916992 503.99291992 C24.6603041 504.18374135 24.6603041 504.18374135 21.8125 505.25 C19.50706426 505.35814682 17.19855524 505.40426965 14.890625 505.41796875 C14.20286484 505.42229416 13.51510468 505.42661957 12.8065033 505.43107605 C10.55843295 505.4412399 8.31058891 505.44124231 6.0625 505.4375 C4.90737411 505.43559662 4.90737411 505.43559662 3.72891235 505.43365479 C-59.9294387 505.2334947 -120.60920846 483.57888296 -167.83203125 440.3828125 C-169.85061204 438.55504283 -171.90978353 436.80653806 -174 435.0625 C-191.01761544 420.12937159 -204.04576187 401.18031041 -216.1875 382.25 C-216.82042969 381.28578125 -217.45335937 380.3215625 -218.10546875 379.328125 C-224.74699064 368.66382857 -229.34482352 356.80265619 -234.1875 345.25 C-234.53876953 344.42612793 -234.89003906 343.60225586 -235.25195312 342.75341797 C-247.07236986 314.70116615 -251.37580747 283.24731546 -251.37280273 253.02270508 C-251.37498141 250.58331626 -251.39319239 248.1443871 -251.41210938 245.70507812 C-251.4700104 230.07022699 -249.90700331 214.91286798 -246.5625 199.625 C-246.1744519 197.84512695 -246.1744519 197.84512695 -245.77856445 196.02929688 C-241.4477441 176.90586288 -234.78993048 158.84519813 -226.1875 141.25 C-225.84138672 140.53328125 -225.49527344 139.8165625 -225.13867188 139.078125 C-213.76946986 115.77881158 -198.13113908 94.86422042 -180.1875 76.25 C-179.65334473 75.69393066 -179.11918945 75.13786133 -178.56884766 74.56494141 C-171.50850534 67.25281868 -164.27008368 60.44230201 -156.1875 54.25 C-155.66027344 53.84104492 -155.13304687 53.43208984 -154.58984375 53.01074219 C-132.78433974 36.17598242 -106.61668001 19.40373963 -79.625 12.6875 C-76.36135006 11.84204194 -73.17808527 10.93630962 -70 9.8125 C-47.22507448 2.0860155 -23.89137069 0.02274966 0 0 Z " fill="#FCFCFC" transform="translate(582.1875,185.75)"/>
<path d="M0 0 C1.21042969 0.32871094 2.42085937 0.65742188 3.66796875 0.99609375 C21.72195979 6.40293666 35.70061496 17.0838458 50 29 C50 20.42 50 11.84 50 3 C69.8 3 89.6 3 110 3 C110.04419916 31.83281122 110.08108559 60.66559655 110.10213066 89.49843331 C110.10463168 92.91252982 110.10722036 96.32662625 110.10986328 99.74072266 C110.1103879 100.42032723 110.11091252 101.0999318 110.11145304 101.80013046 C110.12012467 112.76355908 110.13587651 123.72696644 110.15430559 134.69038251 C110.17309535 145.96348082 110.18398635 157.23656862 110.18817699 168.50968337 C110.19077201 174.83165425 110.19682114 181.15357712 110.21146011 187.47553253 C110.2251601 193.44101128 110.22919786 199.40642283 110.22621536 205.37191582 C110.22676002 207.54692133 110.23066277 209.72192938 110.23841095 211.89692116 C110.30165599 230.58676848 109.91061529 249.10663805 104 267 C103.75088867 267.76231934 103.50177734 268.52463867 103.24511719 269.31005859 C99.93219681 279.27064135 96.46563408 288.60817132 90 297 C89.58121582 297.54462891 89.16243164 298.08925781 88.73095703 298.65039062 C69.86366763 322.81224235 42.05793957 336.14216295 11.9359436 340.28379822 C6.66954432 340.90049358 1.48771609 341.16013889 -3.8125 341.16796875 C-4.62509277 341.17129715 -5.43768555 341.17462555 -6.27490234 341.17805481 C-7.98583416 341.18308299 -9.69677565 341.18546442 -11.40771484 341.18530273 C-13.96599432 341.18747118 -16.52382876 341.20562137 -19.08203125 341.22460938 C-29.86921564 341.26094499 -40.32291532 340.517738 -51 339 C-52.501073 338.79793945 -52.501073 338.79793945 -54.0324707 338.59179688 C-73.99560375 335.75468529 -92.2697081 326.22292995 -108 314 C-109.23363281 313.04673828 -109.23363281 313.04673828 -110.4921875 312.07421875 C-124.40044617 300.51700024 -134.22954459 283.98677813 -140 267 C-140 266.01 -140 265.02 -140 264 C-131.43727511 263.79058295 -122.87563636 263.6311178 -114.31097603 263.53369045 C-110.33301876 263.48690574 -106.35682509 263.42355983 -102.37988281 263.32104492 C-98.53473739 263.22255857 -94.69127708 263.16930189 -90.84496689 263.14610481 C-89.38485069 263.12959645 -87.92481697 263.09735733 -86.4654274 263.04842949 C-78.78627479 262.80144171 -73.20805514 263.02270135 -67.24511719 268.41308594 C-65.82550914 269.93781606 -64.40985752 271.46624946 -63 273 C-46.40197131 284.98412229 -20.55465573 286.33644312 -1.08349609 283.58837891 C15.10875711 280.71462115 30.17115116 275.38856423 40.58984375 261.94921875 C48.80614752 248.68825431 49.21259818 232.07084841 49 217 C48.113125 217.969375 47.22625 218.93875 46.3125 219.9375 C27.4052355 238.76852553 1.46225945 246.41513705 -24.625 246.375 C-57.61502388 246.29210501 -84.2819909 233.3905693 -107.71875 210.32421875 C-122.07127104 195.65858852 -130.67032836 177.63780519 -136.375 158.125 C-136.75156738 156.841698 -136.75156738 156.841698 -137.13574219 155.5324707 C-140.31739688 144.06054213 -140.27544451 132.44889067 -140.3125 120.625 C-140.31511841 119.82552948 -140.31773682 119.02605896 -140.32043457 118.20236206 C-140.32481655 105.70511891 -139.42472672 94.07521948 -136 82 C-135.71125 80.83855469 -135.4225 79.67710937 -135.125 78.48046875 C-132.66563746 69.40059008 -128.43627787 61.24300737 -124 53 C-123.51660156 52.0821875 -123.03320312 51.164375 -122.53515625 50.21875 C-110.5216894 28.76861788 -89.55198286 12.10578043 -67 3 C-66.25878906 2.69578125 -65.51757812 2.3915625 -64.75390625 2.078125 C-62.52164126 1.25104761 -60.30321039 0.60364952 -58 0 C-56.95714844 -0.2784375 -55.91429687 -0.556875 -54.83984375 -0.84375 C-37.29221998 -4.82933016 -17.32872352 -5.029606 0 0 Z " fill="#FEFEFE" transform="translate(1816,366)"/>
<path d="M0 0 C20.13 0 40.26 0 61 0 C61.33 39.27 61.66 78.54 62 119 C65.63 115.7 69.26 112.4 73 109 C92.06644469 94.74143584 112.82945384 87.82509024 136.625 87.8125 C137.81996094 87.80025391 139.01492187 87.78800781 140.24609375 87.77539062 C151.82485751 87.75657357 162.66894783 88.97594367 173.5 93.1875 C174.30969238 93.49647217 175.11938477 93.80544434 175.95361328 94.1237793 C205.26573805 105.58628016 227.94957792 128.53390852 241 157 C255.87650744 192.50526442 256.44058731 233.96777844 242.00488281 269.64355469 C236.91409235 281.58143359 230.43228935 292.15316355 222 302 C221.53722656 302.54640137 221.07445313 303.09280273 220.59765625 303.65576172 C202.7999464 324.44990171 176.80130636 340.74539032 149 343 C116.32176343 344.36412178 91.39773568 338.22482752 66.3046875 316.9453125 C64.26363187 315.22252317 62.1367506 313.60256295 60 312 C60 320.25 60 328.5 60 337 C40.2 337 20.4 337 0 337 C0 225.79 0 114.58 0 0 Z " fill="#FDFDFD" transform="translate(2401,275)"/>
<path d="M0 0 C1.71387597 1.45181543 3.42216445 2.91025088 5.125 4.375 C7.105 6.025 9.085 7.675 11.125 9.375 C11.125 0.795 11.125 -7.785 11.125 -16.625 C31.255 -16.625 51.385 -16.625 72.125 -16.625 C72.125 63.565 72.125 143.755 72.125 226.375 C51.995 226.375 31.865 226.375 11.125 226.375 C11.125 218.125 11.125 209.875 11.125 201.375 C8.8046875 203.3240625 8.8046875 203.3240625 6.4375 205.3125 C-20.42137252 227.1911468 -47.14556084 235.34304602 -81.74072266 232.10693359 C-106.12735572 228.81848241 -126.80852295 215.48007651 -143.875 198.375 C-144.60178955 197.66005371 -144.60178955 197.66005371 -145.34326172 196.93066406 C-157.28390658 185.08352782 -165.41393447 170.80880534 -171.875 155.375 C-172.26300781 154.46363281 -172.65101563 153.55226563 -173.05078125 152.61328125 C-184.9476956 121.14846916 -183.69963815 79.05134039 -169.98339844 48.38134766 C-163.4339817 34.18650293 -155.25281965 22.02674362 -144.875 10.375 C-144.30265625 9.71757812 -143.7303125 9.06015625 -143.140625 8.3828125 C-130.91567008 -4.78737089 -113.11354288 -15.02657426 -95.875 -19.625 C-94.34359375 -20.07166016 -94.34359375 -20.07166016 -92.78125 -20.52734375 C-60.68116827 -28.51555216 -25.60015073 -20.76151635 0 0 Z " fill="#FDFDFD" transform="translate(2266.875,385.625)"/>
<path d="M0 0 C1.11609146 0.00181274 1.11609146 0.00181274 2.25473022 0.00366211 C37.03554104 0.15628095 68.24863499 11.48313019 93.4375 35.9375 C111.01701052 54.2968779 123.71878245 78.10460163 127.5625 103.375 C127.74554687 104.27476562 127.92859375 105.17453125 128.1171875 106.1015625 C130.51765721 119.35347061 129.5625 131.46031432 129.5625 145.375 C64.8825 145.375 0.2025 145.375 -66.4375 145.375 C-63.04654896 160.06912117 -58.67890671 171.29511555 -48.4375 182.375 C-47.86902344 182.99761719 -47.30054688 183.62023437 -46.71484375 184.26171875 C-33.54501705 197.1420987 -14.58544359 201.19651368 3.18945312 201.40234375 C22.85920597 201.17569639 42.22043948 195.55308249 56.75 181.75 C57.38292969 181.07710937 58.01585937 180.40421875 58.66796875 179.7109375 C60.5625 178.375 60.5625 178.375 62.82519531 178.62744141 C65.85362327 179.45450584 68.43794717 180.61139686 71.25390625 182 C72.35500732 182.53794189 73.4561084 183.07588379 74.59057617 183.63012695 C75.75693604 184.20593506 76.9232959 184.78174316 78.125 185.375 C80.54758844 186.55988814 82.97265039 187.73964489 85.3984375 188.91796875 C86.00312363 189.21205124 86.60780975 189.50613373 87.2308197 189.80912781 C95.58621476 193.85930253 104.06847611 197.62678193 112.5625 201.375 C111.7002724 205.68903525 109.39763199 208.31672671 106.5625 211.5625 C106.06339111 212.13911377 105.56428223 212.71572754 105.05004883 213.30981445 C103.5660767 215.00919807 102.06816722 216.69482981 100.5625 218.375 C99.82386719 219.2 99.08523438 220.025 98.32421875 220.875 C77.66138866 242.66630857 47.06663068 254.50257495 17.39526367 255.56494141 C13.8209755 255.6482283 10.2486633 255.65667498 6.67358398 255.63574219 C4.49760209 255.62498815 2.32244213 255.63573403 0.14648438 255.6484375 C-34.56730688 255.68444435 -66.24828375 243.51422498 -91.125 219.125 C-117.18760556 192.74025055 -126.07650831 159.41329994 -125.86376953 123.18579102 C-125.71686155 112.19679821 -124.34105037 101.95481167 -121.4375 91.375 C-121.14875 90.20839844 -120.86 89.04179687 -120.5625 87.83984375 C-116.02401192 71.16495226 -106.50060849 55.47439222 -95.4375 42.375 C-94.80972656 41.611875 -94.18195313 40.84875 -93.53515625 40.0625 C-88.43010284 34.04918555 -82.69122212 29.16245394 -76.4375 24.375 C-75.28507812 23.48167969 -75.28507812 23.48167969 -74.109375 22.5703125 C-52.10469944 6.32876625 -27.08377657 -0.08175663 0 0 Z " fill="#FEFEFE" transform="translate(1231.4375,362.625)"/>
<path d="M0 0 C20.13 0 40.26 0 61 0 C61.33 38.61 61.66 77.22 62 117 C65.3 114.36 68.6 111.72 72 109 C95.89890565 92.31633599 122.2557118 83.90591076 151.55859375 88.61328125 C169.88438315 92.35328346 190.5209322 104.13586765 201.16210938 119.69970703 C213.59339647 139.46459766 216.33519182 159.69041687 216.22705078 182.49194336 C216.22648507 184.18871555 216.22680634 185.88548822 216.22793579 187.58226013 C216.22850407 192.13912189 216.2168359 196.69587599 216.20278788 201.25271297 C216.19019191 206.03326146 216.18910309 210.81381308 216.18673706 215.59437561 C216.18054813 224.62497125 216.16417273 233.65551782 216.14403808 242.68609196 C216.12159803 252.97644268 216.11066536 263.26679588 216.10064721 273.55716503 C216.0798039 294.70481006 216.04316042 315.85238793 216 337 C196.2 337 176.4 337 156 337 C155.96261719 327.89148438 155.92523437 318.78296875 155.88671875 309.3984375 C155.85637813 303.56509 155.82530644 297.73176091 155.79101562 291.8984375 C155.73693673 282.67645095 155.68551246 273.45451524 155.65356445 264.23242188 C155.63026282 257.5101889 155.59652345 250.78809436 155.55129844 244.06597197 C155.5277887 240.52148459 155.50878914 236.97713057 155.50238609 233.4325676 C155.47226631 218.85533467 155.09415561 204.35802124 153.78051758 189.83837891 C153.68153262 188.63812765 153.58254766 187.4378764 153.48056316 186.20125389 C152.25782017 174.18297086 148.49589927 160.33946872 138.8984375 152.22265625 C130.80997331 146.53849499 123.45659599 144.44946038 113.6875 144.5625 C112.75760254 144.57152344 111.82770508 144.58054687 110.86962891 144.58984375 C97.70192524 144.92197711 88.11808501 149.90693462 78.77734375 159.21484375 C59.97789285 180.98453545 61.85759407 209.41035169 61.69667697 236.3678329 C61.67454492 239.9152132 61.6472917 243.4625544 61.62062073 247.00990295 C61.57105644 253.70299966 61.52598587 260.39611849 61.48259836 267.08925778 C61.42359148 276.15088169 61.35750366 285.21245392 61.29184818 294.27403164 C61.18884206 308.51598607 61.09517626 322.7579861 61 337 C40.87 337 20.74 337 0 337 C0 225.79 0 114.58 0 0 Z " fill="#FDFDFD" transform="translate(842,275)"/>
<path d="M0 0 C2.49096339 2.18288044 4.86698008 4.43415621 7.21484375 6.76953125 C8.15070313 7.65318359 8.15070313 7.65318359 9.10546875 8.5546875 C26.34299269 26.21926721 28.55247096 52.94644542 28.44189453 76.26147461 C28.44132882 77.9582468 28.44165009 79.65501947 28.44277954 81.35179138 C28.44334782 85.90865314 28.43167965 90.46540724 28.41763163 95.02224422 C28.40503566 99.80279271 28.40394684 104.58334433 28.40158081 109.36390686 C28.39539188 118.3945025 28.37901648 127.42504907 28.35888183 136.45562321 C28.33644178 146.74597393 28.32550911 157.03632713 28.31549096 167.32669628 C28.29464765 188.47434131 28.25800417 209.62191918 28.21484375 230.76953125 C8.08484375 230.76953125 -12.04515625 230.76953125 -32.78515625 230.76953125 C-32.84574219 221.07707031 -32.90632813 211.38460937 -32.96875 201.3984375 C-33.00927826 195.23241811 -33.05003238 189.06640156 -33.09179688 182.90039062 C-33.1579436 173.12851411 -33.22320787 163.35663781 -33.2824707 153.5847168 C-33.32565139 146.4653036 -33.37200906 139.34591903 -33.4220348 132.22655052 C-33.4483663 128.46397124 -33.47320685 124.70139664 -33.49423027 120.93878365 C-31.84610063 82.83461883 -31.84610063 82.83461883 -46.09765625 48.95703125 C-58.45673461 38.89731631 -69.17975592 37.55138161 -84.78515625 38.76953125 C-92.85822452 40.27254396 -98.74929923 44.36360238 -104.78515625 49.76953125 C-105.41292969 50.31609375 -106.04070312 50.86265625 -106.6875 51.42578125 C-115.20690619 59.33000056 -119.91835194 69.94749954 -122.91015625 81.01953125 C-123.24273438 82.2209375 -123.5753125 83.42234375 -123.91796875 84.66015625 C-126.08962038 93.92535815 -125.94454155 103.58249398 -125.99047852 113.04370117 C-126.00037811 114.32302521 -126.01027771 115.60234924 -126.02047729 116.92044067 C-126.04724427 120.39279985 -126.06840438 123.86517223 -126.08847928 127.33757567 C-126.11051529 130.9797383 -126.13781686 134.62186157 -126.16453552 138.26399231 C-126.21422643 145.14492678 -126.25925167 152.02588336 -126.30255789 158.90686065 C-126.36142212 168.21640674 -126.42758047 177.52590089 -126.49330807 186.83540058 C-126.59651302 201.48007569 -126.69004743 216.12479614 -126.78515625 230.76953125 C-146.91515625 230.76953125 -167.04515625 230.76953125 -187.78515625 230.76953125 C-187.78515625 150.57953125 -187.78515625 70.38953125 -187.78515625 -12.23046875 C-167.65515625 -12.23046875 -147.52515625 -12.23046875 -126.78515625 -12.23046875 C-126.78515625 -4.31046875 -126.78515625 3.60953125 -126.78515625 11.76953125 C-124.97015625 10.32578125 -123.15515625 8.88203125 -121.28515625 7.39453125 C-85.59430403 -20.35222806 -37.73227366 -30.21757119 0 0 Z " fill="#FDFDFD" transform="translate(1597.78515625,381.23046875)"/>
<path d="M0 0 C20.13 0 40.26 0 61 0 C61 111.21 61 222.42 61 337 C40.87 337 20.74 337 0 337 C0 225.79 0 114.58 0 0 Z " fill="#FDFDFD" transform="translate(1981,275)"/>
<path d="M0 0 C1.0003125 0.30679687 2.000625 0.61359375 3.03125 0.9296875 C20.89035268 7.09533009 33.60147133 19.15920032 42 36 C50.32008698 54.77219625 50.74148736 78.27985754 43.8125 97.5625 C36.47081711 115.18677046 24.85763403 129.40709107 7 137 C-1.39843368 140.43080345 -8.82666142 141.65531031 -17.875 141.5 C-19.01469238 141.48718994 -20.15438477 141.47437988 -21.32861328 141.46118164 C-40.91720858 140.99012722 -55.6259577 132.99428774 -69 119 C-84.01454104 101.34553966 -86.43292446 78.25435756 -85 56 C-82.88024866 38.37182731 -73.26583506 22.72565246 -59.9921875 11.20703125 C-43.13867383 -1.22408523 -20.29929175 -6.26114518 0 0 Z " fill="#010101" transform="translate(2544,421)"/>
<path d="M0 0 C15.60523065 12.54757495 24.05365105 28.99778782 26.33789062 48.76757812 C27.61185227 70.76421135 24.87994446 92.15771615 9.83789062 109.33007812 C8.35960787 110.83094924 6.86094204 112.31215777 5.33789062 113.76757812 C4.72558594 114.39921875 4.11328125 115.03085937 3.48242188 115.68164062 C-9.47735981 128.22693036 -26.44707194 131.28287494 -43.79736328 131.1875 C-62.56450578 130.73026523 -76.90089999 122.10294932 -89.66210938 108.76757812 C-101.15439782 95.41341054 -106.2754189 77.81782267 -106.03710938 60.45507812 C-106.02550781 59.36203369 -106.01390625 58.26898926 -106.00195312 57.14282227 C-105.64061275 39.20200694 -100.84599232 22.40856666 -88.66210938 8.76757812 C-88.10394531 8.11789062 -87.54578125 7.46820313 -86.97070312 6.79882812 C-65.12044832 -16.92169901 -25.61168789 -18.99056999 0 0 Z " fill="#000000" transform="translate(2253.662109375,431.232421875)"/>
<path d="M0 0 C0.97259766 -0.00773437 1.94519531 -0.01546875 2.94726562 -0.0234375 C21.29290847 0.02558225 36.29983071 6.53403649 49.75 18.9375 C64.19496205 34.06466765 68.18234534 52.84525001 67.80078125 72.9921875 C67.12337858 91.56570112 59.87230837 108.5919433 46.2578125 121.421875 C30.59188328 134.73541229 11.65163704 138.80739613 -8.4375 137.25 C-26.12626615 134.72127123 -41.26114292 125.38361443 -52.3125 111.5 C-64.21524819 94.61621045 -68.26739988 73.22573801 -64.78125 52.94140625 C-61.01150035 34.66494893 -50.46633514 19.76696902 -35.16064453 9.34570312 C-23.94188316 2.21198237 -13.07251908 -0.10354471 0 0 Z " fill="#010101" transform="translate(1801.4375,419.75)"/>
<path d="M0 0 C6.18649325 1.42765229 10.25553747 5.00546865 15 9 C15.81984375 9.67289062 16.6396875 10.34578125 17.484375 11.0390625 C34.2709301 25.37540614 44.11571927 45.26106932 47 67 C48.75626772 93.76710287 41.88511523 117.78830575 24.27685547 138.40136719 C19.18541328 144.14170152 13.37261839 148.75158774 7 153 C6.01 153 5.02 153 4 153 C1.69 148.38 -0.62 143.76 -3 139 C-7.7952637 139 -8.67554084 139.98992913 -12.25 143 C-13.58804688 144.11375 -13.58804688 144.11375 -14.953125 145.25 C-15.62859375 145.8275 -16.3040625 146.405 -17 147 C-15.741875 147.020625 -14.48375 147.04125 -13.1875 147.0625 C-10.984375 147.33203125 -10.984375 147.33203125 -9 148 C-6.78951674 151.48318574 -5.77612483 153.61316269 -6.44140625 157.734375 C-6.62574219 158.48203125 -6.81007813 159.2296875 -7 160 C-21.35498084 166.24129602 -35.60357713 165.5273859 -51 165 C-51 164.34 -51 163.68 -51 163 C-49.47802734 161.81420898 -49.47802734 161.81420898 -47.3359375 160.49609375 C-46.55033447 160.0074585 -45.76473145 159.51882324 -44.95532227 159.01538086 C-44.10381592 158.49468018 -43.25230957 157.97397949 -42.375 157.4375 C-40.62104393 156.3438299 -38.86713804 155.25007931 -37.11328125 154.15625 C-34.09726887 152.28959344 -31.0738624 150.4361043 -28.04296875 148.59375 C-14.57725715 140.31583039 -2.40138562 130.3513065 3 115 C5.33492363 101.81261443 5.91570151 87.38408542 -1.42578125 75.73828125 C-9.7284036 64.131773 -21.37828304 56.43435006 -33.625 49.5 C-34.72457031 48.86835938 -35.82414063 48.23671875 -36.95703125 47.5859375 C-39.63380435 46.0497025 -42.31469984 44.52126391 -45 43 C-48.8542306 45.42390706 -51.95903814 47.75084576 -54.875 51.25 C-55.47054687 51.95640625 -56.06609375 52.6628125 -56.6796875 53.390625 C-57.11539063 53.92171875 -57.55109375 54.4528125 -58 55 C-57.18660156 54.88398438 -56.37320313 54.76796875 -55.53515625 54.6484375 C-43.70564141 53.71697964 -36.45361256 58.4551913 -27 65 C-26.05769531 65.64839844 -25.11539063 66.29679687 -24.14453125 66.96484375 C-22.3791257 68.24280989 -20.67719509 69.60828493 -19 71 C-19 71.33 -19 71.66 -19 72 C-35.17 72 -51.34 72 -68 72 C-66.73809859 59.38098592 -63.2568323 51.20634243 -53.65234375 42.9921875 C-46.59193779 37.4511094 -39.02731172 32.93695459 -31.30761719 28.38769531 C-24.90092982 24.59628056 -18.87322448 20.58609057 -13 16 C-12.12021484 15.36578125 -12.12021484 15.36578125 -11.22265625 14.71875 C-6.21955969 10.95051442 -2.77678975 5.55357951 0 0 Z " fill="#030303" transform="translate(620,358)"/>
<path d="M0 0 C0.14695312 1.54107422 0.14695312 1.54107422 0.296875 3.11328125 C1.43656054 14.0420987 3.20905287 24.02624844 10 33 C13.2826932 31.50923566 15.93077441 29.61379679 18.75 27.375 C19.94882812 26.42753906 19.94882812 26.42753906 21.171875 25.4609375 C21.77515625 24.97882813 22.3784375 24.49671875 23 24 C21.7625 24.020625 20.525 24.04125 19.25 24.0625 C16.43265939 23.71283007 15.36720645 23.46203449 13.578125 21.2109375 C10.93862974 15.64504532 11 12.627934 11 6 C26.51 6 42.02 6 58 6 C54.84853789 9.15146211 52.70884393 10.96046351 49 13.13671875 C48.03594238 13.70946533 47.07188477 14.28221191 46.07861328 14.87231445 C45.0626709 15.47132568 44.04672852 16.07033691 43 16.6875 C26.23996125 26.74586513 9.6523602 36.91699571 2.86328125 56.234375 C-0.13548863 69.31498206 1.00077894 84.21313381 7.66015625 95.91796875 C16.23815127 108.68808454 28.80145842 115.50492326 41.91650391 122.77978516 C43.81199365 123.88989269 45.55329228 125.09114915 47.32421875 126.38671875 C49.78088329 128.18282239 49.78088329 128.18282239 52.11328125 127.99609375 C54.58525426 126.69101483 56.24894105 125.07380038 58.1875 123.0625 C58.88230469 122.35222656 59.57710937 121.64195312 60.29296875 120.91015625 C62.05739074 119.10400213 62.05739074 119.10400213 63 117 C62.23300781 117.07863281 61.46601562 117.15726562 60.67578125 117.23828125 C48.07321889 117.51638658 37.64074179 110.68751669 28 103 C26.515 101.02 26.515 101.02 25 99 C41.17 99 57.34 99 74 99 C72.80018274 109.79835533 69.35616846 119.61786345 61 127 C52.94030819 133.2809166 44.12866467 138.37401112 35.32714844 143.52880859 C29.29201178 147.10172932 23.83424234 150.99549125 18.5078125 155.55078125 C16 157 16 157 12.97265625 156.859375 C-7.77843525 150.86037352 -22.45328952 133.48252265 -32.4921875 115.296875 C-33.83705873 112.57371959 -34.94230648 109.84735487 -36 107 C-36.46535156 105.79085937 -36.93070312 104.58171875 -37.41015625 103.3359375 C-43.66677182 85.37256574 -43.91462887 62.78370237 -37 45 C-36.62617188 43.95457031 -36.25234375 42.90914063 -35.8671875 41.83203125 C-31.40820055 30.18255873 -24.58877338 20.94027122 -16 12 C-15.37867188 11.33871094 -14.75734375 10.67742187 -14.1171875 9.99609375 C-4.48812095 0 -4.48812095 0 0 0 Z " fill="#030303" transform="translate(541,361)"/>
<path d="M0 0 C0.82886719 0.45375 1.65773438 0.9075 2.51171875 1.375 C14.17531791 8.06980131 21.87608012 16.37586268 27.9375 28.375 C28.24429687 28.98214844 28.55109375 29.58929688 28.8671875 30.21484375 C30.22543061 33.01269938 31 34.84794911 31 38 C-12.23 38 -55.46 38 -100 38 C-97.35401871 24.77009357 -86.84188573 11.79602263 -75.88793945 4.3125 C-53.63135369 -10.1660386 -23.77397141 -13.0915942 0 0 Z " fill="#010101" transform="translate(1268,422)"/>
<path d="M0 0 C0.99 0.495 0.99 0.495 2 1 C1.443125 1.69222656 0.88625 2.38445312 0.3125 3.09765625 C-20.09760826 29.26534573 -26.99562099 59.88920018 -23.32348633 92.69970703 C-21.30602594 107.04575363 -15.80647095 119.90017029 -9.0390625 132.6015625 C-8.69617188 133.39304687 -8.35328125 134.18453125 -8 135 C-8.33 135.66 -8.66 136.32 -9 137 C-26.71040596 126.27135723 -43.11284728 114.32765976 -58.41796875 100.3359375 C-59.84137575 99.04819562 -61.27150259 97.76733278 -62.72900391 96.51831055 C-68.42579751 91.62952717 -73.71997202 86.39524716 -79 81.0625 C-79.87011719 80.18787109 -80.74023438 79.31324219 -81.63671875 78.41210938 C-83.76013549 76.27702551 -85.88116378 74.13962795 -88 72 C-86.51873643 68.56069417 -84.57572554 66.33045662 -81.9296875 63.69921875 C-81.115 62.88646484 -80.3003125 62.07371094 -79.4609375 61.23632812 C-78.60757812 60.39521484 -77.75421875 59.55410156 -76.875 58.6875 C-75.62976563 57.44323242 -75.62976563 57.44323242 -74.359375 56.17382812 C-69.39812276 51.24756904 -64.31154694 46.54397827 -59 42 C-57.90518745 41.03896953 -56.81139104 40.0767799 -55.71875 39.11328125 C-42.00020983 27.12725347 -27.47639995 16.60035417 -12 7 C-11.37947754 6.61344238 -10.75895508 6.22688477 -10.11962891 5.82861328 C-2.92679085 1.37852363 -2.92679085 1.37852363 0 0 Z " fill="#030303" transform="translate(498,361)"/>
<path d="M0 0 C21.29740065 7.96680543 41.20084312 24.70700547 57.7734375 39.95703125 C59.81427926 41.82959308 61.89463697 43.63829534 64 45.4375 C68.91029426 49.71035241 73.43360829 54.36656502 78 59 C80.5758927 61.59892602 83.14279934 64.12727768 85.875 66.5625 C86.57625 67.366875 87.2775 68.17125 88 69 C87.7395727 72.72703601 85.82579761 74.53687035 83.24609375 77.08203125 C82.47330078 77.84966797 81.70050781 78.61730469 80.90429688 79.40820312 C80.09025391 80.20162109 79.27621094 80.99503906 78.4375 81.8125 C77.65052734 82.59431641 76.86355469 83.37613281 76.05273438 84.18164062 C71.73315081 88.444247 67.31969628 92.54851196 62.72241211 96.50952148 C60.61940347 98.32934682 58.59495688 100.2270157 56.5625 102.125 C46.00140742 111.61072297 34.45632735 119.84204001 22.6875 127.75 C21.78604248 128.3586792 20.88458496 128.9673584 19.95581055 129.59448242 C19.10801025 130.15627197 18.26020996 130.71806152 17.38671875 131.296875 C16.63608154 131.79541992 15.88544434 132.29396484 15.11206055 132.80761719 C13.05359734 133.96974114 11.31029699 134.55683085 9 135 C10.05850397 131.34334993 11.43883657 128.13781935 13.25 124.8125 C17.25250304 117.0094006 19.64058806 108.42329029 22 100 C22.35271973 98.76773682 22.70543945 97.53547363 23.06884766 96.26586914 C24.15362793 91.86491606 24.27288197 87.67506931 24.23046875 83.16015625 C24.23001053 82.35259384 24.22955231 81.54503143 24.2290802 80.71299744 C24.22608164 79.02308667 24.21826816 77.33317806 24.20581055 75.64331055 C24.18737805 73.04531195 24.1853024 70.44766701 24.18554688 67.84960938 C24.18063736 66.20312189 24.17481153 64.55663683 24.16796875 62.91015625 C24.16685593 62.13108414 24.1657431 61.35201202 24.16459656 60.54933167 C24.46276214 56.97859209 24.46276214 56.97859209 23 54 C22.6957344 52.59013562 22.43279092 51.17131189 22.1875 49.75 C19.03681555 33.74724302 12.46419192 19.74171999 3.4453125 6.234375 C2.13308784 4.2057466 1.0310304 2.18218086 0 0 Z " fill="#030303" transform="translate(668,362)"/>
<path d="M0 0 C18.81 0 37.62 0 57 0 C62 9 62 9 63 16 C44.19 16 25.38 16 6 16 C1 7 1 7 0 0 Z " fill="#010101" transform="translate(552,437)"/>
<path d="M0 0 C1.1753833 0.00322266 2.3507666 0.00644531 3.56176758 0.00976562 C12.47631125 0.15240816 20.32919765 1.30138655 28.6875 4.4375 C27.56298273 7.4094385 26.46456209 9.77190687 24.6875 12.4375 C22.39694214 12.79826355 22.39694214 12.79826355 19.50341797 12.77807617 C17.88196365 12.77773628 17.88196365 12.77773628 16.22775269 12.77738953 C15.05689117 12.76190567 13.88602966 12.74642181 12.6796875 12.73046875 C11.48393097 12.72622391 10.28817444 12.72197906 9.05618286 12.71760559 C5.22472929 12.70076902 1.39379547 12.66310684 -2.4375 12.625 C-5.02994034 12.60995964 -7.62238889 12.59627011 -10.21484375 12.58398438 C-16.58090748 12.55084918 -22.94666662 12.5006003 -29.3125 12.4375 C-29.5625 9.625 -29.5625 9.625 -29.3125 6.4375 C-22.58738001 -0.7323377 -9.03317142 -0.07748807 0 0 Z " fill="#070707" transform="translate(582.3125,348.5625)"/>
</svg>
